Filename:
The Town DVDRip XviD-DiAMOND
 
http://www.imdb.com/title/tt0840361/

[IMG]http://i.min.us/idwZqc.jpg[/IMG]
[IMG]http://i.min.us/ibbTLc.png[/IMG]
[IMG]http://i.min.us/ibgqz0.png[/IMG]
[IMG]http://i.min.us/ibgoru.png[/IMG]
[IMG]http://i.min.us/ibcv2K.png[/IMG]

Video
ID                               : 0
Format                           : MPEG-4 Visual
Format profile                   : AdvancedSimple@L5
Format settings, BVOP            : Yes
Format settings, QPel            : No
Format settings, GMC             : No warppoints
Format settings, Matrix          : Default (MPEG)
Muxing mode                      : Packed bitstream
Codec ID                         : XVID
Codec ID/Hint                    : XviD
Duration                         : 2h 5mn
Bit rate                         : 1 173 Kbps
Width                            : 640 pixels
Height                           : 272 pixels
Display aspect ratio             : 2.35:1
Frame rate                       : 23.976 fps
Resolution                       : 24 bits
Colorimetry                      : 4:2:0
Scan type                        : Progressive
Bits/(Pixel*Frame)               : 0.281
Stream size                      : 1.02 GiB (75%)
Writing library                  : XviD 1.2.1 (UTC 2008-12-04)

Audio
ID                               : 1
Format                           : AC-3
Format/Info                      : Audio Coding 3
Codec ID                         : 2000
Duration                         : 2h 4mn
Bit rate mode                    : Constant
Bit rate                         : 384 Kbps
Channel(s)                       : 6 channels
Channel positions                : Front: L C R, Surround: L R, LFE
Sampling rate                    : 48.0 KHz
Stream size                      : 343 MiB (24%)
Alignment                        : Split accross interleaves
Interleave, duration             : 42 ms (1.00 video frame)
Interleave, preload duration     : 500 ms